<svg xmlns="http://www.w3.org/2000/svg" viewBox="0 0 98.16 112.08"><defs><style>.cls-1{fill:#00025b;}.cls-2{fill:#9899ff;}</style></defs><g id="Layer_2" data-name="Layer 2"><g id="Layer_1-2" data-name="Layer 1"><path class="cls-1" d="M96.66,26.92,50.58.4a3,3,0,0,0-3,0L1.5,26.92A3,3,0,0,0,0,29.52v53a3,3,0,0,0,1.5,2.6l46.09,26.53a3,3,0,0,0,3,0L96.66,85.15a3,3,0,0,0,1.5-2.6v-53A3,3,0,0,0,96.66,26.92Z"/><path class="cls-2" d="M45.57,17.4a.49.49,0,0,1-.25.43l-16.48,9.5a.5.5,0,0,0,0,.87l16.48,9.49a.5.5,0,0,1,.25.43V45a.5.5,0,0,1-.75.44l-30-17.25a.5.5,0,0,1,0-.86l30-17.27a.5.5,0,0,1,.75.44ZM83.3,28.2l-30,17.26a.5.5,0,0,1-.75-.43v-6.9a.52.52,0,0,1,.25-.43l16.51-9.5a.51.51,0,0,0,0-.87L52.82,17.82a.5.5,0,0,1-.25-.43v-6.9a.5.5,0,0,1,.75-.43l30,17.28A.49.49,0,0,1,83.3,28.2Z"/></g></g></svg>